<svg width="155" height="173" viewBox="0 0 155 173" fill="none" xmlns="http://www.w3.org/2000/svg">
<path d="M52.6 173C44.8667 173 36.1333 172.333 26.4 171C21.0667 170.333 17.4 168.933 15.4 166.8C13.4 164.667 12.5333 161.2 12.8 156.4C13.7333 143.2 15.9333 126.933 19.4 107.6C22.8667 88.1333 27.0667 69.4 32 51.4C32.9333 48.0667 34.8 45.7333 37.6 44.4C40.4 43.0667 44.0667 42.4 48.6 42.4C56.7333 42.4 60.8 44.6667 60.8 49.2C60.8 51.0667 60.4 53.2 59.6 55.6C56.1333 66.2667 52.6667 80.6 49.2 98.6C45.7333 116.467 43.2667 133.533 41.8 149.8C45.8 150.2 50.3333 150.4 55.4 150.4C78.7333 150.4 96.1333 143.333 107.6 129.2C119.2 115.067 125 96.2 125 72.6C125 56.7333 120.467 44.4667 111.4 35.8C102.333 27.1333 89.5333 22.8 73 22.8C62.3333 22.8 51.7333 24.4667 41.2 27.8C30.8 31.1333 21.4 35.5333 13 41C11.2667 42.2 9.4 42.8 7.4 42.8C5.13333 42.8 3.33333 41.8667 2 40C0.666667 38 3.57628e-07 35.6 3.57628e-07 32.8C3.57628e-07 29.6 0.533334 27 1.6 25C2.66667 22.8667 4.46667 20.9333 7 19.2C16.2 12.9333 27 8.19999 39.4 4.99999C51.8 1.66666 63.7333 -2.86102e-06 75.2 -2.86102e-06C91.4667 -2.86102e-06 105.533 2.86666 117.4 8.59999C129.267 14.2 138.4 22.4667 144.8 33.4C151.2 44.3333 154.4 57.5333 154.4 73C154.4 93.1333 150.4 110.733 142.4 125.8C134.4 140.733 122.733 152.333 107.4 160.6C92.0667 168.867 73.8 173 52.6 173Z" fill="black"/>
</svg>
