<svg width="728" height="418" viewBox="0 0 728 418" fill="none" xmlns="http://www.w3.org/2000/svg">
<path d="M526.862 159.742C536.664 150.99 550.988 150.051 560.524 140.868C564.417 137.119 572.798 129.971 578.425 129.971C595.51 129.971 611.475 147.369 628.82 150.596C638.332 152.366 649.129 150.986 658.785 150.986C666.34 150.986 675.342 152.283 682.718 150.596C686.93 149.634 692.971 148.764 696.728 147.094C698.923 146.118 700.57 146.26 702.76 145.635C704.34 145.183 705.27 141.476 708.013 140.479C718.753 136.573 721.244 118.068 721.244 108.081C721.244 97.7688 725.741 74.0936 720.174 66.0529C713.272 56.0826 700.929 52.9462 689.723 50.2922C677.086 47.2992 664.724 43.0121 652.072 40.5633C636.567 37.5623 621.076 31.282 605.666 27.4294C590.25 23.5754 575.545 17.6533 560.135 14.0036C545.78 10.6038 532.603 5.06429 517.717 5.63682C510.782 5.90355 504.42 14.2231 500.594 19.2572C496.583 24.5356 490.978 27.355 487.558 33.6559C485.255 37.8978 480.218 39.9035 479.677 45.0386C479.265 48.9571 479.952 52.4496 477.829 56.0322C474.922 60.9367 474.549 71.0394 474.332 76.8857L474.326 77.0465C474.052 84.4706 472.161 99.9303 480.65 103.703C488.742 107.3 499.87 107.142 508.475 109.054C518.86 111.362 529.508 119.464 539.996 119.464C547.47 119.464 540.621 136.424 536.591 138.727C532.505 141.062 525.111 154.739 525.111 159.742M400.658 218.397C403.2 228.564 405.355 238.491 409.625 248.099C410.873 250.908 413.824 252.074 414.109 255.634C414.312 258.176 417.169 258.42 417.471 260.989C417.872 264.399 425.418 269.274 427.31 272.197C433.267 281.403 446.94 284.527 457.261 284.527C466.892 284.527 483.601 284.308 483.601 270.516V254.513C483.601 248.464 480.53 244.107 480.238 238.572C479.674 227.845 466.788 218.13 466.788 207.686C466.788 199.257 458.346 193.334 452.84 188.134C450.281 185.717 440.597 186.568 437.646 187.262C431.425 188.726 425.339 190.109 419.464 192.368C413.609 194.62 409.183 198.788 404.706 203.265C402.886 205.085 402.526 209.897 400.658 212.232C396.291 217.692 394.782 226.243 386.087 226.243C378.939 226.243 370.836 227.363 363.11 227.363C356.728 227.363 342.942 229.92 337.331 226.803C331.413 223.516 317.823 226.243 310.991 226.243H284.589C249.263 226.243 213.909 225.414 178.731 221.759C150.504 221.759 118.348 221.951 93.4845 236.455C86.7459 240.386 83.7439 244.818 79.2249 250.901C76.2901 254.852 77.3512 259.654 75.0528 263.791C73.6933 266.238 74.4924 270.523 74.4924 273.318C74.4924 274.623 73.6194 280.517 72.8111 281.164C70.5797 282.949 72.2507 295.756 72.2507 298.599V316.471C72.2507 335.642 71.1299 354.651 71.1299 373.758C71.1299 378.993 71.385 409.337 84.58 403.087C99.1624 396.18 102.888 381.532 103.634 366.597C103.875 361.776 109.362 350.656 114.905 350.656C120.029 350.656 131.703 348.956 135.89 352.026C138.04 353.603 134.443 365.847 133.835 367.469C130.993 375.047 128.791 391.859 133.648 398.853C138.103 405.268 154.019 394.014 156.937 389.637C158.875 386.729 159.921 381.989 160.798 378.678C161.903 374.503 164.518 371.401 165.717 367.407C167.639 360.998 164.483 353.696 169.764 348.415C183.218 334.961 206.289 334.963 224.354 334.965L261.175 334.965C283.159 334.965 306.301 331.94 324.441 346.049C328.39 349.12 333.098 350.057 333.408 356.261C333.641 360.927 333.408 365.664 333.408 370.333C333.408 375.032 331.85 383.127 333.657 387.644C335.906 393.268 341.34 396.849 346.111 400.347C352.161 404.784 356.283 395.088 359.81 392.065C362.225 389.996 363.671 381.782 363.671 378.678C363.671 373.845 363.362 369.312 364.791 364.667C366.281 359.826 367.565 354.653 370.396 350.407C371.926 348.112 378.207 340.492 380.483 345.613C384.849 355.436 384.967 364.325 384.967 375.253C384.967 385.042 383.483 394.413 383.846 404.208C384.18 413.24 393.743 414.684 399.787 409.189C404.313 405.074 405.117 396.596 407.633 391.007C410.163 385.384 408.504 375.847 408.504 369.711C408.504 362.268 410.354 355.47 410.746 348.415C411.119 341.706 411.685 333.152 413.859 326.87C415.667 321.647 419.133 315.525 419.713 310.306C420.183 306.072 422.694 300.46 424.757 296.794C427.258 292.347 429.26 280.658 435.405 280.043M421.954 210.551V217.276M441.009 208.309C441.009 211.049 441.005 212.785 442.13 215.034M428.68 271.076C428.68 252.466 446.133 252.022 460.624 252.022C464.895 252.022 480.347 249.998 482.48 254.264M452.217 267.714C453.545 271.403 456.353 276.333 458.942 278.922M466.788 266.593C469.013 267.149 472.74 275.482 473.513 277.802M404.021 200.463C403.835 198.975 399.234 191.604 397.296 191.496C392.721 191.242 392.545 189.693 390.82 195.731C389.773 199.394 390.571 204.256 390.571 208.06C390.571 211.056 390.983 211.202 393.435 213.042C398.648 216.951 399.515 217.942 404.021 212.792M453.338 183.65C444.372 182.53 471.894 161.226 472.392 170.2C472.643 174.707 472.61 178.651 471.023 182.779C469.751 186.085 465.667 189.179 465.667 192.617M83.4592 243.055C81.6906 244.824 79.7928 246.227 77.8549 247.788C74.4459 250.534 73.4427 255.022 69.8845 257.564C63.896 261.841 62.1233 266.633 57.1193 271.637C47.8226 280.934 46.7897 296.442 39.4971 306.943C36.8299 310.784 37.083 314.449 34.7024 318.152C32.9293 320.91 32.7281 326.232 30.219 328.24C28.8565 329.33 28.4104 333.29 27.666 334.965C26.5507 337.474 25.0378 338.74 24.0544 341.69M22.9335 341.69C18.3571 341.944 16.1054 344.8 12.2855 346.609C9.62986 347.867 7.50617 347.656 5 349.536M21.8127 347.294C24.8789 347.635 25.1752 354.983 25.1752 357.382M28.5378 342.811C33.3946 342.811 36.0255 348.796 39.7462 350.656M18.4501 343.931C15.0189 347.363 10.6042 350.854 10.6042 356.261M82.3383 250.901C75.5558 252.597 90.629 273.367 94.2317 275.56C102.589 280.647 110.426 280.043 119.824 280.043C128.099 280.043 134.523 277.92 142.49 276.058C147.3 274.934 152.913 273.318 157.871 273.318C160.559 273.318 162.408 271.379 165.032 271.076C169.472 270.564 173.127 263.853 173.127 259.806C173.127 255.222 172.073 248.806 174.248 244.674C178.247 237.076 172.61 234.089 165.219 234.089C158.633 234.089 150.71 237.483 150.71 245.359C150.71 250.145 149.838 255.159 143.736 255.385C136.937 255.636 133.004 256.395 130.286 250.279C128.418 246.076 129.284 240.707 130.535 236.33C131.659 232.394 135.426 228.734 129.413 226.822M129.413 226.822C129.392 226.816 129.372 226.809 129.352 226.803C128.629 226.577 127.861 226.401 127.06 226.272M129.413 226.822C131.23 228.335 131.088 232.434 130.472 234.587C130.21 235.504 123.43 240.695 122.44 241.685C121.689 242.436 120.583 243.339 119.312 244.347M129.413 226.822C128.974 226.457 128.421 226.243 127.733 226.243C127.501 226.243 127.277 226.253 127.06 226.272M127.06 226.272C121.496 225.375 114.35 226.752 109.986 229.605C109.076 230.2 105.179 232.937 102.652 235.292M127.06 226.272C124.375 226.512 122.74 228.204 121.686 230.654M102.652 235.292C102.39 235.536 102.142 235.776 101.915 236.009M102.652 235.292C102.896 235.438 103.14 235.618 103.385 235.832C103.466 235.903 103.529 235.986 103.574 236.079M102.652 235.292C100.604 234.058 98.6175 235.103 97.1002 236.806M101.915 236.009C100.825 237.124 100.183 238.081 100.521 238.572C100.872 239.082 101.377 239.473 101.988 239.764M101.915 236.009C102.456 236.019 103.011 236.046 103.574 236.079M101.915 236.009C100.068 235.972 98.3811 236.121 97.1002 236.806M101.988 239.764C104.717 241.061 109.564 240.356 112.246 239.255M101.988 239.764C99.384 242.932 94.6676 246.077 94.6676 241.934C94.6676 241.555 94.6848 241.2 94.7181 240.866M101.988 239.764C103.189 238.303 103.941 236.837 103.574 236.079M112.246 239.255C113.888 238.581 114.719 237.759 113.758 237.158M112.246 239.255C110.579 241.572 108.856 243.945 107.012 246.196M112.246 239.255C112.754 238.549 113.258 237.848 113.758 237.158M113.758 237.158C113.034 236.704 111.293 236.376 108.118 236.33C106.629 236.309 105.075 236.169 103.574 236.079M113.758 237.158C114.666 235.903 115.563 234.683 116.462 233.528C117.893 231.689 117.736 230.726 120.447 230.726C120.66 230.726 121.13 230.682 121.686 230.654M97.1002 236.806C95.8099 237.495 94.9318 238.729 94.7181 240.866M97.1002 236.806C96.0181 238.02 95.1746 239.57 94.7181 240.866M94.7181 240.866C94.5832 241.249 94.4821 241.611 94.4186 241.934C94.303 242.524 94.2306 243.33 94.1457 244.203M94.1457 244.203C93.9669 246.043 93.7327 248.18 92.9241 249.22C92.2044 250.145 91.5479 251.143 90.9647 252.033M94.1457 244.203C92.4106 244.428 90.7844 244.895 89.4634 245.806M94.1457 244.203C97.2516 243.801 100.707 244.176 103.385 244.176C107.008 244.176 107.793 244.879 107.012 246.196M90.9647 252.033C89.0654 254.932 87.9426 256.697 87.9426 251.15C87.9426 249.601 88.0039 248.125 88.1348 247.006M90.9647 252.033C90.7688 250.904 90.6014 249.893 90.4333 249.158C90.0657 247.549 89.7434 246.466 89.4634 245.806M90.9647 252.033C90.9831 252.139 91.0017 252.246 91.0206 252.354M88.1348 247.006C88.3592 245.087 88.7881 244.214 89.4634 245.806M88.1348 247.006C87.8573 247.334 87.6053 247.697 87.3821 248.099C83.2774 255.488 90.8485 262.938 94.6676 267.963C96.8311 270.81 106.988 273.802 105.004 270.827C103.606 268.73 103.127 266.218 102.451 263.853C102.101 262.626 95.9689 258.613 94.6054 258.187C94.5917 258.182 94.5781 258.178 94.5646 258.174M88.1348 247.006C88.5295 246.539 88.9757 246.142 89.4634 245.806M91.0206 252.354C91.3052 253.977 91.6521 255.806 92.144 257.396M91.0206 252.354C92.3517 250.812 94.243 249.354 96.2866 248.66C99.4773 247.576 104.717 245.734 101.33 249.967C100.312 251.241 98.2056 253.637 96.5736 255.532M91.0206 252.354C88.9331 254.771 88.2235 257.391 90.4654 257.585M92.144 257.396C92.1581 257.442 92.1724 257.488 92.1867 257.533M92.144 257.396C92.0384 257.423 91.9359 257.446 91.8363 257.467M92.144 257.396C92.9624 257.192 93.9627 256.824 95.1658 256.256C95.6437 256.031 96.1128 255.789 96.5736 255.532M92.1867 257.533C92.6669 259.047 93.2828 260.329 94.1072 260.989C94.5314 261.328 94.6609 261.773 94.6756 262.257M92.1867 257.533C92.0626 257.508 91.9459 257.486 91.8363 257.467M92.1867 257.533C92.7655 257.651 93.505 257.847 94.4316 258.133M94.6756 262.257C94.7066 263.273 94.2325 264.463 94.9167 265.223C97.1904 267.749 96.626 264.193 95.2281 262.795C95.0518 262.618 94.8666 262.439 94.6756 262.257ZM94.6756 262.257C92.6783 260.354 90.0515 258.226 90.4654 257.585M90.4654 257.585C90.5937 257.386 91.0142 257.33 91.8363 257.467M90.4654 257.585C90.8383 257.617 91.2929 257.582 91.8363 257.467M94.4316 258.133C94.4755 258.146 94.5198 258.16 94.5646 258.174M94.4316 258.133C94.3092 258.321 94.3366 258.352 94.5646 258.174M94.4316 258.133C94.6775 257.756 95.5283 256.747 96.5736 255.532M94.5646 258.174C94.6517 258.106 94.7681 258.007 94.9167 257.875C96.4232 256.536 97.9 255.132 99.381 253.718M107.012 246.196C106.719 246.69 106.206 247.27 105.54 247.932M107.012 246.196C106.53 246.784 106.04 247.364 105.54 247.932M105.54 247.932C104.995 248.473 104.348 249.07 103.634 249.718C102.194 251.028 100.785 252.377 99.381 253.718M105.54 247.932C103.646 250.085 101.615 252.072 99.381 253.718M99.381 253.718C98.4796 254.382 97.5452 254.991 96.5736 255.532M121.686 230.654C123.172 230.576 125.266 230.604 124.681 231.847C123.276 234.833 121.373 237.74 119.683 240.751M121.686 230.654C120.508 233.395 120.058 237.086 119.683 240.751M119.683 240.751C119.256 241.511 118.843 242.279 118.454 243.055C117.787 244.391 117.168 244.628 117.092 246.1M119.683 240.751C119.559 241.964 119.443 243.175 119.312 244.347M117.092 246.1C117.087 246.2 117.085 246.306 117.085 246.418C117.085 249.159 115.801 247.605 114.843 249.282C113.492 251.646 113.781 252.242 111.48 253.392C110.023 254.121 108.118 258.571 108.118 256.941C108.118 253.513 112.875 249.452 117.092 246.1ZM117.092 246.1C117.861 245.49 118.611 244.903 119.312 244.347M119.312 244.347C118.919 247.849 118.387 251.012 117.085 252.894C112.566 259.42 99.6532 266.098 108.678 273.318C111.464 275.547 125.881 275.76 129.414 274.19C132.813 272.679 138.283 272.346 141.992 272.197C145.37 272.062 148.383 270.147 151.831 269.956C162.993 269.335 163.039 261.518 163.039 252.52C163.039 248.617 166.208 246.355 166.402 243.055C166.652 238.802 161.535 238.03 158.805 241.063C154.147 246.238 159.624 256.94 156.314 262.732C151.718 270.775 137.904 263.94 130.971 269.333C128.76 271.052 120.337 272.96 118.205 270.578C114.026 265.907 118.64 260.651 121.319 257.377C124.333 253.693 130.049 255.839 134.956 257.066C140.387 258.424 145.241 257.908 150.648 258.809C158.477 260.114 146.618 263.231 143.985 263.231C141.469 263.231 137.557 262.717 134.379 263.216M134.379 263.216C132.976 263.437 131.717 263.854 130.784 264.6C129.757 265.422 122.689 269.436 122.689 266.593C122.689 262.455 131.173 263.103 134.379 263.216ZM134.379 263.216C134.625 263.225 134.84 263.231 135.018 263.231M170.695 350.261C166.24 351.375 175.063 367.009 176.836 368.605C181.13 372.469 192.706 371.248 198.134 371.248C201.772 371.248 206.105 372.137 208.861 369.46C211.851 366.555 212.054 363.027 214.613 359.899C215.666 358.612 217.509 352.371 217.567 350.805C217.677 347.815 218.266 344.742 218.266 341.866M179.79 373.346C178.363 375.487 177.983 385.147 181.15 385.939C183.047 386.413 184.902 387.599 185.386 384.812C185.8 382.431 186.816 379.689 185.386 377.544M197.979 374.746C202.323 374.746 204.493 382.873 208.122 384.889C212.725 387.446 213.362 382.713 210.26 379.759C209.095 378.65 206.928 376.072 205.674 375.445M397.356 199.153C397.345 199.466 397.257 199.95 397.139 200.526M397.139 200.526C396.991 201.246 396.797 202.111 396.647 202.97M397.139 200.526C397.725 201.798 398.694 203.457 398.642 204.947M397.139 200.526C397.106 200.456 397.075 200.387 397.045 200.319C396.839 199.851 393.769 196.919 393.975 198.26C394.223 199.874 395.317 201.499 396.647 202.97M396.647 202.97C396.376 204.528 396.25 206.069 396.812 206.693C397.323 207.261 398.152 206.501 398.367 206.071C398.545 205.715 398.628 205.337 398.642 204.947M396.647 202.97C397.281 203.67 397.967 204.335 398.642 204.947M398.642 204.947C399.427 205.659 400.195 206.3 400.843 206.84L400.854 206.849M461.017 184.462C458.144 184.103 465.331 176.087 466.069 174.979C467.252 173.205 463.815 178.833 463.815 180.965M407.85 236.231C408.845 237.95 412.561 242.592 414.845 242.527C419.123 242.405 419.771 237.695 422.89 236.308C424.05 235.793 427.427 235.909 428.293 236.775C431.074 239.556 423.078 242.66 421.491 243.149C420.35 243.5 418.829 243.19 417.644 243.226C417.12 243.242 415.128 244.448 416.167 244.587C419.983 245.095 429.738 240.239 427.438 246.413C425.65 251.212 418.678 255.707 414.146 257.218M472.91 234.132C464.226 234.132 463.764 226.488 463.794 219.482M463.794 219.482C463.799 218.407 463.815 217.347 463.815 216.332C463.815 212.902 461.017 209.877 461.017 206.149C461.017 201.12 459.756 198.8 458.569 205.45C457.726 210.166 458.234 211.284 460.862 214.699C461.676 215.759 462.568 218.016 463.794 219.482ZM463.794 219.482C464.407 220.215 465.103 220.75 465.914 220.84C468.913 221.173 469.412 224.057 469.412 226.437C469.412 227.964 469.606 228.347 468.013 228.574C464.864 229.024 472.835 230.455 473.609 230.634M420.442 193.557C425.309 193.557 429.92 194.956 434.744 194.956C438.518 194.956 438.631 194.519 438.631 190.759M267.936 329.273C269.76 323.117 274.695 318.655 275.903 312.056C277.142 305.289 277.73 298.141 277.73 291.263C277.73 284.437 274.421 281.833 280.994 276.961C291.634 269.075 308.779 265.74 321.803 264.369C324.629 264.071 329.004 263.536 331.674 264.796C336.86 267.245 339.445 273.512 340.263 278.788C340.707 281.646 340.548 284.437 340.691 287.299C340.756 288.591 349.716 290.455 350.679 290.836C354.168 292.216 359.689 294.42 357.869 299.347C355.191 306.602 341.07 306.831 334.978 308.247C334.494 308.36 326.97 309.734 328.41 311.629C330.25 314.05 336.588 313.224 339.02 313.106C354.442 312.353 366.056 304.763 376.058 293.44C379.75 289.261 386.032 278.218 393.003 280.459C397.321 281.847 398.816 284.758 401.787 287.843C405.302 291.494 402.183 295.188 399.844 298.531C398.31 300.722 394.495 304.354 398.755 304.827C401.377 305.119 403.781 305.488 406.451 305.488C408.441 305.488 410.54 311.88 409.793 314.038C407.418 320.9 391.535 318.78 386.474 318.78C381.532 318.78 379.17 319.088 375.669 322.589C373.573 324.685 371.888 327.324 369.607 329.196C364.742 333.187 358.116 332.601 352.428 334.559C347.988 336.088 344.093 340.229 339.642 341.166C338.738 341.356 336.143 343.266 335.833 344.353C335.188 346.611 335.562 349.109 332.257 349.522C326.428 350.251 328.715 343.529 331.752 341.011C337.795 336.001 345.93 333.18 351.185 327.33C351.468 327.015 351.759 326.703 352.055 326.392M352.055 326.392C353.933 324.413 355.975 322.458 357.014 319.907C357.352 319.077 357.394 318.229 357.636 317.381C357.79 316.842 358.82 316.483 358.569 315.982C358.383 315.609 353.644 315.997 353.244 316.02C349.431 316.245 346.887 318.636 343.489 320.024C337.046 322.655 331.471 327.566 324.64 329.273C323.671 329.516 322.749 329.675 321.833 329.779M352.055 326.392C344.591 328.871 336.951 331.307 329.109 332.732C327.807 332.969 326.52 333.022 325.249 332.932M352.055 326.392C352.517 326.238 352.978 326.085 353.439 325.931C356.113 325.04 358.505 324.677 360.434 322.822C362.371 320.96 365.772 321.661 367.819 320.024C369.931 318.333 372.35 313.564 374.659 313.144C379.336 312.294 383.031 311.784 387.912 311.784H396.929C397.459 311.784 403.776 311.914 402.098 310.54C400.219 309.003 395.257 310.489 392.692 308.986C391.642 308.37 384.822 307.938 384.764 306.887C384.584 303.654 387.851 300.932 390.36 299.347C391.604 298.562 391.893 297.126 392.809 296.394C394.544 295.005 395.257 290.581 395.257 288.349C395.257 286.524 391.186 287.235 389.894 287.338C389.785 287.347 389.676 287.357 389.569 287.369M321.833 329.779C320.353 329.948 318.886 329.973 317.255 329.973C315.652 329.973 314.072 328.464 312.448 327.056M321.833 329.779C323.294 330.609 324.477 331.643 325.249 332.932M321.833 329.779C319.305 328.344 315.946 327.523 312.448 327.056M312.448 327.056C311.271 326.035 310.07 325.066 308.822 324.765C304.989 323.84 300.616 323.735 296.205 323.865M312.448 327.056C306.772 326.299 300.73 326.475 297.279 326.475H293.833M296.205 323.865C291.695 323.997 287.146 324.376 283.093 324.376C280.498 324.376 277.994 325.513 275.631 325.776C275.61 325.778 275.59 325.78 275.569 325.783M296.205 323.865C297.151 322.658 297.777 321.286 296.968 319.829C296.923 319.748 296.88 319.667 296.838 319.586M296.205 323.865C295.423 324.864 294.421 325.749 293.833 326.475M275.569 325.783C273.869 325.998 273.099 327.173 275.569 325.783ZM275.569 325.783C275.639 325.744 275.711 325.702 275.786 325.659C278.831 323.897 282.947 321.998 284.725 318.78C286.3 315.93 285.425 311.427 285.425 308.286V300.659M285.425 300.659V295.252M285.425 300.659C282.569 300.368 278.819 299.755 279.284 298.492C279.757 297.208 280.613 296.619 281.81 296.277C283 295.937 284.208 295.597 285.425 295.252M285.425 300.659C286.951 300.815 288.221 300.879 288.456 300.902C291.161 301.161 293.666 301.4 296.054 301.411M285.425 295.252V295.033C285.425 291.442 285.584 288.553 286.928 285.781M285.425 295.252C289.19 294.185 293.034 293.076 296.657 291.808C302.522 289.755 309.359 290.886 315.506 290.797C318.616 290.752 321.327 289.707 324.329 289.048C326.817 288.502 330.114 288.666 332.452 287.688C340.373 284.372 333.119 280.073 328.099 281.159C322.594 282.349 316.698 281.46 311.387 283.452C308.819 284.415 307.291 285.822 304.313 285.9C299.014 286.04 293.636 286.05 288.34 285.861C287.916 285.846 287.433 285.821 286.928 285.781M286.928 285.781C287.483 284.636 288.241 283.51 289.273 282.363C289.711 281.876 290.157 281.411 290.61 280.967M286.928 285.781C283.724 285.528 279.64 284.683 284.376 282.052C286.289 280.99 288.45 280.93 290.61 280.967M290.61 280.967C295.447 276.235 301.135 274.007 308.355 274.007C315.823 274.007 323.438 273.569 330.897 274.007C332.462 274.099 330.81 276.449 330.042 276.728C325.986 278.203 320.845 278.324 316.595 278.749C309.151 279.493 301.627 280.483 294.17 280.964C293.012 281.039 291.811 280.988 290.61 280.967ZM296.054 301.411C298.992 301.423 301.754 301.089 304.494 300.021M296.054 301.411C296.186 297.342 296.449 293.657 296.968 293.945C299.919 295.585 302.357 297.669 304.494 300.021M296.054 301.411C295.993 303.277 295.959 305.225 295.941 306.905M304.494 300.021C305.858 299.489 307.216 298.775 308.588 297.832C314.406 293.832 321.204 293.595 328.021 293.595H348.93C350.825 293.595 353.283 292.76 353.283 295.15C353.283 299.478 349.645 301.226 345.355 301.912C334.344 303.674 323.116 302.557 312.086 304.089C310.781 304.27 309.456 304.429 308.123 304.59M304.494 300.021C305.8 301.458 306.993 302.994 308.123 304.59M308.123 304.59C304.022 305.087 299.843 305.611 295.941 306.905M308.123 304.59C309.443 306.455 310.675 308.401 311.897 310.363M295.941 306.905C294.724 307.309 293.534 307.788 292.382 308.364C289.318 309.896 289.536 312.344 289.622 315.282C289.713 318.374 293.128 319.344 296.838 319.586M295.941 306.905C295.918 308.973 295.918 310.637 295.918 311.253L295.918 311.318C295.918 314.283 295.495 316.964 296.838 319.586M296.838 319.586C299.951 319.789 303.271 319.479 305.013 319.479C309.51 319.479 313.825 320.698 317.255 323.366C321.118 326.371 324.385 328.241 327.01 322.239C327.028 322.2 327.044 322.161 327.061 322.122M327.061 322.122C327.646 320.747 327.878 319.51 327.827 318.41M327.061 322.122C330.732 322.175 334.541 321.774 336.668 321.55L336.766 321.539C339.441 321.258 331.605 319.973 330.469 319.479C329.471 319.045 328.609 318.717 327.827 318.41M327.061 322.122C323.145 322.065 319.386 321.492 317.994 319.635C316.193 317.234 314.583 314.685 312.995 312.131M327.827 318.41C327.636 314.225 323.361 312.03 318.918 311.804M327.827 318.41C325.757 317.599 324.241 316.943 322.191 314.893C320.803 313.505 319.869 312.504 318.918 311.804M318.918 311.804C318.662 311.791 318.406 311.784 318.149 311.784C316.312 311.784 314.632 311.906 312.995 312.131M318.918 311.804C317.505 310.763 316.054 310.385 313.019 310.385C312.831 310.385 312.437 310.374 311.897 310.363M312.995 312.131C310.594 312.461 308.286 313.013 305.712 313.727C304.63 314.028 299.604 315.734 298.872 314.272C296.853 310.234 308.067 310.288 311.897 310.363M312.995 312.131C312.628 311.541 312.263 310.952 311.897 310.363M293.833 326.475C293.628 326.728 293.474 326.962 293.397 327.175M293.833 326.475H285.075C280.652 326.475 277.756 327.175 284.725 327.175H293.397M293.397 327.175C293.075 328.06 294.096 328.574 298.406 328.574C304.175 328.574 307.553 330.174 312.682 332.604L312.708 332.616C314.409 333.422 327.48 339.507 325.922 334.442C325.757 333.904 325.53 333.401 325.249 332.932M293.397 327.175H298.717C302.469 327.175 307.482 326.25 310.92 327.874C315.422 330 320.209 332.579 325.249 332.932M389.569 287.369C383.248 288.086 381.346 294.616 378.079 299.036C376.094 301.723 374.69 304.588 372.327 307.043C370.982 308.439 370.123 309.847 368.052 310.307C366.84 310.577 366.488 310.258 365.565 311.085C365.442 311.194 359.693 314.425 362.378 314.582C363.562 314.652 363.863 315.311 364.982 315.554C368.173 316.248 372.337 313.777 374.931 312.134C380.447 308.64 388.262 301.862 388.262 294.684C388.262 291.632 387.833 288.712 389.569 287.369ZM389.569 287.369C390.203 286.88 391.124 286.6 392.459 286.6M211.97 327.874C211.97 319.865 216.103 315.419 221.764 310.23C224.089 308.098 225.66 305.709 228.293 303.933C229.343 303.225 230.653 301.732 231.169 300.552C231.892 298.9 231.585 297.024 232.296 295.305C233.304 292.87 233.917 290.647 233.501 287.999C232.999 284.799 231.369 281.319 231.597 278.127C231.865 274.368 234.356 271.587 234.356 267.711C234.356 266.095 232.185 264.173 230.548 265.379C224.684 269.7 222.269 277.699 217.217 282.752C215.465 284.504 213.326 285.187 211.348 286.6C209.703 287.775 208.356 289.636 206.529 290.486C202.144 292.526 199.522 296.431 194.636 297.793C191.547 298.654 188.031 298.435 185.347 300.28C179.535 304.276 184.455 306.126 182.51 311.473C182.387 311.813 182.238 312.143 182.067 312.461M182.067 312.461C181.544 313.434 180.809 314.303 179.923 315.061M182.067 312.461C181.073 313.329 180.208 314.272 179.923 315.061M182.067 312.461C183.245 311.432 184.604 310.509 185.386 310.074C188.86 308.144 191.457 305.179 194.52 302.729C202.797 296.107 213.294 293.048 220.754 285.589C225.628 280.714 226.784 288.259 225.961 291.652C225.481 293.633 223.601 295.208 221.554 296.541M179.923 315.061C175.534 318.818 167.441 319.836 163.078 317.031C160.054 315.087 161.601 321.867 161.601 324.221C161.601 326.796 160.829 330.18 162.689 332.149C164.718 334.297 163.811 335.57 166.848 335.57C166.911 335.57 166.974 335.571 167.036 335.573M179.923 315.061C179.901 315.123 179.882 315.184 179.868 315.243C179.279 317.596 180.425 317.946 181.033 319.635C181.951 322.182 181.963 325.186 181.889 327.874C181.832 329.916 180.977 333.998 178.041 332.694C176.451 331.987 175.705 329.06 174.582 327.874C171.937 325.082 170.012 323.964 165.954 324.415C164.341 324.595 164.983 330.255 165.254 331.372C165.607 332.823 166.276 334.221 167.036 335.573M167.036 335.573C168.317 335.622 169.455 336.159 170.657 336.58C172.087 337.081 173.988 336.478 175.281 337.124C176.837 337.902 170.102 340.788 169.296 339.378C168.594 338.149 167.772 336.883 167.036 335.573ZM221.554 296.541C219.998 297.554 218.345 298.427 217.139 299.231C215.055 300.62 213.284 303.286 212.125 305.488C209.396 310.674 206.205 310.375 200.505 311.046C199.786 311.13 199.014 311.229 198.216 311.354M221.554 296.541C223.792 297.259 224.633 298.294 222.464 300.591C220.845 302.305 218.835 304.528 216.712 305.488C211.945 307.644 206.373 313.425 206.373 318.78C206.373 319.129 206.342 319.477 206.283 319.821M221.554 296.541C220.707 296.269 219.659 296.043 218.499 295.811C214.417 294.994 212.515 296.407 209.483 298.726C207.8 300.013 205.513 301.607 204.042 303.078C201.389 305.731 199.692 308.074 198.216 311.354M198.216 311.354C193.474 312.091 187.795 313.715 186.747 318.43C186.446 319.783 184.797 323.577 185.474 325.697M198.216 311.354C197.774 312.335 197.352 313.4 196.929 314.582C195.956 317.307 194.892 324.376 190.983 324.376C190.048 324.376 187.227 324.932 185.474 325.697M185.474 325.697C185.745 326.546 186.389 327.127 187.641 327.175C191.489 327.323 195.193 328.57 199.222 327.33C202.21 326.411 205.685 323.311 206.283 319.821M185.474 325.697C184.686 326.041 184.114 326.428 184.026 326.825C183.621 328.647 183.979 329.83 185.697 330.517C190.365 332.384 197.281 329.973 202.176 329.973C206.549 329.973 212.747 329.446 209.016 323.133C208.44 322.157 207.458 320.957 206.283 319.821M206.283 319.821C204.195 317.8 201.496 315.982 199.378 315.982M75.5538 318.78C78.93 318.78 83.3535 319.112 87.0689 320.513M87.0689 320.513C88.7783 321.158 90.3379 322.028 91.5766 323.197M87.0689 320.513C87.1576 320.836 87.3211 321.142 87.602 321.423C88.5165 322.337 89.9133 322.895 91.5766 323.197M87.0689 320.513C86.5817 318.742 88.3518 316.484 85.3478 315.282C83.5828 314.576 84.111 313.584 85.0369 312.406C85.7179 311.539 86.5398 311.011 87.4467 310.696M91.5766 323.197C92.5178 324.085 93.2738 325.145 93.7695 326.408M91.5766 323.197C96.6524 324.119 104.21 322.665 108.123 321.734C113.273 320.507 117.146 313.776 120.637 310.424C122.919 308.233 124.104 306.887 127.4 306.887C129.278 306.887 133.502 306.309 131.83 309.413C130.287 312.279 127.76 315.032 125.495 317.381C123.792 319.147 121.512 320.042 119.782 321.734C118.588 322.902 117.867 324.452 116.673 325.62C114.086 328.152 109.496 330.309 105.791 329.118C103.51 328.385 102.942 325.197 100.583 324.843C98.0157 324.458 95.7467 325.154 93.7695 326.408M93.7695 326.408C94.1185 327.298 94.3385 328.288 94.4034 329.39C94.762 335.487 93.7969 344.532 89.0788 349.25C85.7906 352.538 76.4736 355.124 83.9487 360.443C85.9715 361.883 88.8456 361.469 88.8456 364.407C88.8456 365.422 89.2957 367.719 88.1461 368.294C83.6243 370.555 75.4435 369.607 74.8931 363.552C74.1691 355.588 78.155 351.193 80.8006 344.314C81.2687 343.097 81.5758 341.867 81.8141 340.633M93.7695 326.408C92.1855 327.413 90.7887 328.775 89.5758 330.224M81.8141 340.633C82.3125 338.05 82.5096 335.449 83.2491 332.906M81.8141 340.633C83.1934 340.532 84.488 340.352 84.8814 340.311C87.9508 339.99 91.6439 340.382 91.6439 336.813C91.6439 334.519 90.87 332.193 89.5758 330.224M81.8141 340.633C80.0405 340.761 78.1266 340.758 77.808 340.156C76.0831 336.898 79.2965 331.457 77.2639 328.263C76.3374 326.807 75.5538 326.576 75.5538 324.726C75.5538 323.355 78.0621 320.408 79.4015 322.045C80.0773 322.871 80.5037 323.965 80.919 325.078M83.2491 332.906C83.3644 332.51 83.4929 332.115 83.6377 331.722C83.8494 331.147 86.4018 327.543 84.9203 327.214C83.985 327.006 82.0132 326.181 81.121 325.619M83.2491 332.906V332.072C83.2491 330.618 83.0541 329.298 82.2386 328.03C81.7782 327.314 81.4415 326.473 81.121 325.619M83.2491 332.906V335.57C83.2491 339.01 86.8232 334.008 87.4465 333.082C88.0795 332.142 88.789 331.165 89.5758 330.224M81.121 325.619C80.651 325.323 80.4806 325.1 80.919 325.078M81.121 325.619C81.0533 325.439 80.9863 325.258 80.919 325.078M80.919 325.078C80.9425 325.077 80.9678 325.076 80.9949 325.076C84.4609 325.076 87.6152 327.241 89.5758 330.224M87.4467 310.696C89.5546 309.964 92.1211 310.385 94.4422 310.385H96.3769M87.4467 310.696C89.0547 313.913 90.8827 320.848 95.1806 318.43C97.6485 317.042 100.087 315.16 102.595 313.395M87.4467 310.696V310.696ZM87.4467 310.696C86.1985 308.2 81.9588 304.104 79.4403 302.845C78.18 302.215 76.7822 302.096 75.5538 301.446C75.4507 301.391 75.3614 301.322 75.2857 301.247M96.3769 310.385H105.985C107.839 310.385 108.066 307.829 108.783 306.537C110.095 304.176 100.13 306.816 98.8721 307.149L98.834 307.159C95.8329 307.954 95.4878 309.217 96.3769 310.385ZM96.3769 310.385C97.2595 311.544 99.3584 312.61 101.282 313.028C101.741 313.128 102.177 313.253 102.595 313.395M102.595 313.395C106.096 314.584 108.382 316.974 112.631 315.826C115.055 315.171 120.649 308.647 115.663 308.325C110.851 308.015 106.633 310.553 102.595 313.395ZM75.2857 301.247C74.945 300.909 74.8814 300.468 75.0874 300.863C75.1537 300.99 75.2198 301.118 75.2857 301.247ZM75.2857 301.247C77.133 304.852 78.8271 309.075 79.5958 313.028C80.3094 316.698 80.0572 317.381 83.9487 317.381M246.949 229.235C247.721 232.841 252.287 236.124 254.333 239.34C255.403 241.021 258.009 240.363 259.696 240.428C264.851 240.626 266.417 246.493 272.133 243.226C278.017 239.864 280.149 235.251 286.925 234.858M286.925 234.858C287.232 234.841 287.547 234.831 287.873 234.831C290.475 234.831 294.572 233.964 296.929 235.142C297.088 235.222 297.243 235.308 297.395 235.399M286.925 234.858C287.021 234.862 287.117 234.866 287.213 234.87C290.613 235.015 294.006 235.2 297.395 235.399M286.925 234.858C277.851 234.487 268.699 234.831 259.619 234.831C255.252 234.831 249.789 236.09 252.001 229.701C252.614 227.931 256.136 228.57 257.52 228.186C262.242 226.874 268.596 227.53 273.377 228.38C279.801 229.522 286.292 229.235 292.809 229.235C303.814 229.235 315.723 227.907 326.661 229.274C329.575 229.638 332.523 230.747 335.094 232.033M297.395 235.399C299.369 236.586 300.774 238.689 302.914 239.728C308.26 242.325 313.728 239.07 318.771 238.174C320.659 237.838 323.206 237.158 325.748 236.851M297.395 235.399C306.845 235.955 316.266 236.624 325.748 236.851M325.748 236.851C327.404 236.651 329.058 236.609 330.526 236.925M325.748 236.851C327.339 236.889 328.931 236.914 330.526 236.925M330.526 236.925C332.086 237.26 333.436 237.999 334.356 239.379C336.3 242.294 329.941 243.168 328.254 243.77C324.705 245.038 333.617 246.025 334.317 246.025C335.806 246.025 339.926 246.747 340.846 245.325C341.704 243.999 343.778 241.987 343.334 240.273C342.076 235.421 336.028 236.93 332.141 236.93C331.602 236.93 331.064 236.928 330.526 236.925ZM336.494 383.14C338.135 379.857 341.004 378.949 343.878 376.844C346.695 374.781 348.92 372.431 352.273 371.248C353.018 370.985 356.109 369.45 356.781 370.159C358.788 372.278 357.28 377.814 356.081 379.953C354.99 381.903 353.793 383.151 352.313 383.946M352.313 383.946C350.778 384.771 348.94 385.109 346.598 385.239C343.206 385.428 341.014 385.774 338.981 388.387C333.931 394.88 351.541 398.363 353.128 392.546C353.697 390.459 353.846 386.008 352.506 384.19C352.447 384.109 352.382 384.028 352.313 383.946ZM352.313 383.946C350.941 382.327 347.764 380.481 347.764 378.282C347.764 377.514 348.824 376.231 349.086 375.445M382.665 349.561C382.412 349.434 387.199 347.492 388.262 347.462C389.962 347.415 392.113 347.232 393.547 348.317C396.992 350.924 398.78 357.616 400.699 361.454C401.341 362.738 402.502 363.752 403.497 364.803M403.497 364.803C404.056 365.393 404.562 365.994 404.896 366.662C405.328 367.526 405.051 369.05 405.051 370.004C405.051 372.766 403.271 371.947 400.815 371.947C392.267 371.947 390.647 366.252 390.36 358.811C390.306 357.394 388.492 353.839 389.816 352.515C391.94 350.391 397.643 362.288 398.444 363.514C401.022 367.456 402.523 366.958 403.497 364.803ZM403.497 364.803C404.803 361.917 405.164 356.058 405.906 353.914C406.693 351.641 407.85 351.437 407.85 348.706V348.674C407.85 347.559 407.85 345.675 406.995 344.819C406.432 344.257 405.484 344.51 405.051 343.537C403.81 340.743 401.697 341.98 399.805 340.467C397.238 338.413 396.08 342.33 395.957 344.664C395.863 346.453 392.395 347.875 392.459 345.752C392.544 342.949 395.736 341.664 396.734 339.417C398.375 335.725 400.437 332.839 400.799 328.81M400.799 328.81C400.835 328.407 400.854 327.992 400.854 327.563C400.854 324.818 398.679 323.157 398.095 320.529C397.92 319.743 396.566 317.536 395.646 317.536C394.908 317.536 395.257 324.174 395.257 324.921V330.616M400.799 328.81C399.075 329.729 397.313 330.673 395.957 330.673C395.717 330.673 395.484 330.653 395.257 330.616M400.799 328.81C404.043 327.081 407.15 325.442 407.15 330.362V335.803C407.15 332.156 407.85 328.704 407.85 325.076M395.257 330.616V334.17C395.257 336.467 393.207 340.791 392.109 336.619C391.147 332.962 391.35 327.839 389.476 324.804M395.257 330.616C393.352 330.304 391.91 328.737 391.06 326.825C390.6 325.791 390.08 325.171 389.476 324.804M389.476 324.804C388.458 323.156 386.827 322.124 384.064 322.278C382.216 322.38 380.392 323.916 378.395 324.668M389.476 324.804C388.223 324.045 386.606 324.376 384.414 324.376C382.317 324.376 380.39 324.36 378.395 324.668M378.395 324.668C377.74 324.914 377.067 325.076 376.369 325.076C376.058 325.076 375.839 325.078 375.695 325.08M378.395 324.668C377.957 324.735 377.516 324.818 377.069 324.921C376.613 325.025 376.016 325.066 375.695 325.08M375.695 325.08C375.352 325.085 375.43 325.092 375.695 325.08Z" stroke="black" stroke-width="10" stroke-linecap="round"/>
</svg>
