<svg width="40" height="40" viewBox="0 0 40 40" fill="none" xmlns="http://www.w3.org/2000/svg">
<path d="M26.6666 13.3334C29.3188 13.3334 31.8624 14.3869 33.7377 16.2623C35.6131 18.1377 36.6666 20.6812 36.6666 23.3334V35H30V23.3334C30 22.4493 29.6488 21.6015 29.0237 20.9764C28.3985 20.3512 27.5507 20 26.6666 20C25.7826 20 24.9347 20.3512 24.3096 20.9764C23.6845 21.6015 23.3333 22.4493 23.3333 23.3334V35H16.6666V23.3334C16.6666 20.6812 17.7202 18.1377 19.5956 16.2623C21.4709 14.3869 24.0145 13.3334 26.6666 13.3334Z" stroke="white" stroke-width="4" stroke-linecap="round" stroke-linejoin="round"/>
<path d="M9.99998 15H3.33331V35H9.99998V15Z" stroke="white" stroke-width="4" stroke-linecap="round" stroke-linejoin="round"/>
<path d="M6.66665 10C8.5076 10 9.99998 8.50766 9.99998 6.66671C9.99998 4.82576 8.5076 3.33337 6.66665 3.33337C4.8257 3.33337 3.33331 4.82576 3.33331 6.66671C3.33331 8.50766 4.8257 10 6.66665 10Z" stroke="white" stroke-width="4" stroke-linecap="round" stroke-linejoin="round"/>
</svg>
