<svg width="34" height="41" viewBox="0 0 34 41" fill="none" xmlns="http://www.w3.org/2000/svg">
<path d="M2 32.347H20.9221C23.4817 32.347 26.0319 32.4296 28.5892 32.4296C29.6303 32.4296 30.6919 32.595 31.6854 32.595M13.7418 37.1429C13.8376 37.3239 14.0527 37.5751 14.192 37.7218C14.3927 37.933 14.6928 37.9503 14.8995 38.1352C15.3089 38.5015 15.718 38.714 16.2592 38.714C17.241 38.714 18.2188 38.5621 19.0293 38.0893C19.159 38.0136 19.3299 37.7348 19.406 37.5977C19.5358 37.3642 18.8741 37.391 18.7445 37.391H17.2975C16.879 37.391 16.3457 37.3745 15.9744 37.1889C15.5944 36.9988 14.834 37.1429 14.4033 37.1429M6.54785 30.3624C6.857 29.3663 6.707 28.2336 6.77754 27.2019C6.83074 26.4239 6.87861 25.6004 6.87861 24.8222C6.87861 24.1168 6.99816 23.3601 7.06236 22.6539C7.16235 21.5541 7.23497 20.4579 7.28746 19.3556C7.35973 17.838 7.16671 16.289 7.30124 14.7755C7.37248 13.9741 7.72449 13.2355 7.86629 12.4556C7.97539 11.8555 8.15013 11.2382 8.53239 10.7467C9.18993 9.90128 10.1334 9.37697 11.0039 8.78052C11.4181 8.49669 11.8846 8.08413 12.3361 7.87094C12.853 7.62685 13.3848 7.42928 13.9072 7.16808C14.7303 6.75651 15.5239 6.6306 16.4338 6.6306H17.4996C18.0827 6.6306 18.5176 6.81387 19.0707 6.96136C19.9773 7.20312 20.6083 8.01705 21.3446 8.53245C22.2426 9.16103 23.2039 9.74568 24.078 10.37C26.2381 11.913 26.4833 14.7655 27.2569 17.0862C27.6669 18.3161 27.6336 19.8141 27.6336 21.0966C27.6336 22.4381 27.6187 23.8637 27.2202 25.153C26.9366 26.0704 26.9721 27.2978 26.9721 28.2538V30.6932M16.0572 6.38253C16.0572 5.7838 15.8566 5.15827 15.7264 4.57255C15.6354 4.16297 15.6438 3.76974 15.6438 3.3414C15.6438 2.47544 16.319 2 17.1138 2C17.4822 2 17.9499 2.17131 18.1704 2.45479C18.2722 2.58569 18.4414 2.66654 18.4552 2.84527C18.4732 3.07981 18.7087 3.13072 18.7676 3.35978C18.9606 4.11064 18.9513 4.84915 18.9513 5.63833" stroke="black" stroke-width="3" stroke-linecap="round"/>
</svg>
