<svg width="172" height="164" viewBox="0 0 172 164" fill="none" xmlns="http://www.w3.org/2000/svg">
<path d="M84.5751 30.6795C84.5751 43.1058 82.3915 61.3943 73.0458 69.7016C68.4152 73.8177 61.1874 72.3621 55.3085 72.3621C50.053 72.3621 40.8753 68.9539 37.5712 64.8238C36.4765 63.4553 31.6646 64.2253 30.6734 65.4643C29.6228 66.7776 29.1457 71.0308 29.6387 72.7563C30.3254 75.1596 38.3575 73.7185 40.4289 75.0228C42.977 76.6271 47.662 76.6574 49.4946 79.0136C52.6042 83.0116 52.6479 89.9742 52.6479 94.9772C52.6479 99.4405 52.3349 102.638 49.1005 106.063C47.7618 107.48 47.9533 112.858 45.553 113.158C44.4702 113.293 44.2365 114.611 43.2866 114.882C41.7426 115.324 39.631 114.932 38.0147 114.932C35.5778 114.932 36.6844 121.903 36.6844 123.8C36.6844 126.885 35.687 130.996 39.7391 131.733C42.6541 132.263 46.3521 133.024 49.1005 134.246C53.5787 136.236 62.1215 133.925 65.9509 131.585C71.2247 128.362 72.6493 117.592 79.7466 117.592C82.9338 117.592 86.0682 116.637 87.4328 119.366C88.4885 121.478 90.7831 124.524 90.7831 126.904C90.7831 128.2 91.3536 129.335 91.9669 130.474M91.9669 130.474C92.6388 131.721 93.3621 132.972 93.4437 134.443C93.5797 136.891 92.5064 133.04 91.9669 130.474ZM91.9669 130.474C91.7896 129.63 91.67 128.925 91.67 128.629C91.67 121.54 89.0933 116.751 93.8872 110.892C97.9154 105.968 102.179 104.289 108.52 104.289H125.371C130.918 104.289 134.745 109.61 139.561 109.61C145.634 109.61 145.549 97.4423 141.334 97.1944C134.731 96.806 127.998 97.1944 121.38 97.1944C115.671 97.1944 109.131 93.8587 106.303 88.7692C105.407 87.1555 104.973 82.1781 104.973 80.3439C104.973 77.0829 104.086 74.1096 104.086 71.0319C104.086 65.3438 102.451 59.3126 103.935 53.6171M103.935 53.6171C103.968 53.493 104.002 53.3691 104.037 53.2453C105.593 47.7986 104.973 41.735 104.973 36.0007C104.973 35.8474 104.968 35.6973 104.959 35.5505M103.935 53.6171C107.254 52.6775 110.404 51.4125 112.314 49.7964C114.895 47.6125 109.446 42.9447 108.718 41.1248C108.26 39.9814 106.659 37.6406 104.959 35.5505M103.935 53.6171C100.522 54.5835 96.932 55.2057 94.3306 55.5117C86.894 56.3866 94.3306 74.6732 94.3306 78.5702V90.9863C94.3306 96.1612 91.3185 99.5486 88.6153 103.797C84.7075 109.937 81.767 96.78 81.2247 93.6469C80.6972 90.599 81.8468 81.9004 76.1006 83.9899C67.3994 87.154 68.6115 98.4245 68.6115 105.62C68.6115 113.084 63.5571 114.131 61.5166 120.253M104.959 35.5505C104.588 29.6536 96.8799 28.9057 91.67 28.9057C84.1152 28.9057 98.6455 30.5717 100.884 31.5663C101.807 31.9766 103.423 33.6612 104.959 35.5505ZM58.856 109.61C54.7196 113.747 49.9873 120.861 49.9873 126.904C49.9873 129.51 53.0766 124.655 53.2885 124.392C57.8331 118.741 62.7814 113.743 67.5276 108.329C73.3206 101.722 78.7602 94.5911 81.9145 86.3549C84.9716 78.3726 85.1557 69.3528 88.5167 61.6705C91.4348 55.0006 92.8464 47.8377 96.1043 41.3219M94.7359 152.626C86.2056 152.626 82.6278 144.775 81.4525 142.196C80.4833 140.068 79.2303 138.798 78.1005 138.798C77.4222 138.798 76.6879 139.215 76.2717 139.838C70.9172 147.845 61.4914 152.627 51.0586 152.627C33.7874 152.627 19.7348 138.542 19.7348 121.23C19.7348 110.54 23.9121 101.589 30.9086 97.2884C32.8606 96.0859 33.851 94.9137 33.851 93.8036C33.851 92.3823 32.3298 91.3369 30.8263 91.0379C18.7823 88.6445 11 79.8662 11 68.6743C11 56.1929 21.1338 46.0379 33.5904 46.0379C39.2768 46.0379 45.0313 48.448 48.9838 52.4854C50.7944 54.3343 52.8414 55.195 55.4263 55.195C59.855 55.195 63.6616 51.9111 63.7389 48.0253C63.7626 46.9227 63.702 43.0172 63.6763 41.6051C63.6758 41.5732 63.6752 41.5424 63.6752 41.5116C63.6752 24.403 77.3182 11 94.7354 11C112.008 11 126.061 25.0843 126.061 42.397C126.061 49.9424 122.414 58.1844 119.751 64.202L119.631 64.4732C117.722 68.7924 117.764 72.6914 119.756 75.7495C122.012 79.2142 126.687 81.3677 131.957 81.3677C132.52 81.3677 133.095 81.3435 133.666 81.2955C134.958 81.1869 137.326 81.0995 138.539 81.0793C138.662 81.0773 138.777 81.0763 138.893 81.0763C151.082 81.0763 160.999 91.2298 160.999 103.712C160.999 116.193 150.865 126.348 138.409 126.348C131.924 126.348 127.018 122.884 123.075 120.1C122.585 119.754 122.097 119.41 121.608 119.073C119.502 117.62 117.581 116.972 115.379 116.972C112.903 116.972 110.545 118 108.739 119.865C106.841 121.827 105.844 124.421 105.933 127.168C105.984 128.742 106.347 129.795 106.897 131.388C107.436 132.947 108.106 134.886 108.546 137.592C109.117 141.107 108.077 144.632 105.62 147.519C102.901 150.717 98.8313 152.626 94.7359 152.626ZM78.1005 128.559C83.4333 128.559 88.051 131.982 90.7692 137.951C92.7914 142.388 94.1535 142.388 94.7359 142.388C95.8177 142.388 97.0586 141.784 97.8232 140.885C98.101 140.559 98.5505 139.91 98.4404 139.234C98.1419 137.398 97.6944 136.103 97.2212 134.731C96.5561 132.805 95.801 130.622 95.7 127.5C95.5207 121.955 97.5394 116.715 101.384 112.744C105.081 108.924 110.183 106.734 115.38 106.734C119.667 106.734 123.605 108.013 127.419 110.643C127.939 111.001 128.46 111.368 128.982 111.737C132.305 114.083 135.176 116.11 138.41 116.11C145.22 116.11 150.762 110.549 150.762 103.712C150.762 96.8768 145.438 91.3147 138.894 91.3147L138.71 91.3167C137.536 91.3369 135.447 91.4207 134.523 91.498C133.669 91.5697 132.806 91.6056 131.958 91.6056C123.133 91.6056 115.365 87.7672 111.178 81.3374C107.261 75.3232 106.938 67.8631 110.269 60.3318L110.388 60.0586C112.683 54.8758 115.823 47.7778 115.823 42.3965C115.823 30.7298 106.364 21.2384 94.7364 21.2384C82.8813 21.2384 73.9379 29.9323 73.9146 41.4672C73.9273 42.2 74.0081 46.7828 73.9758 48.2379C73.7874 57.7157 65.4657 65.4333 55.4268 65.4333C50.0566 65.4333 45.4278 63.4869 41.6692 59.6485C39.6631 57.5995 36.4924 56.2763 33.5909 56.2763C26.7803 56.2763 21.2389 61.8379 21.2389 68.6737C21.2389 74.9475 25.5687 79.5536 32.8222 80.9945C39.4581 82.3131 44.0914 87.5798 44.0914 93.802C44.0914 97.1748 42.7348 102.03 36.2747 106.007C31.6283 108.864 29.9737 115.742 29.9737 121.229C29.9737 132.895 39.4328 142.387 51.0591 142.387C58.0667 142.387 64.3111 139.305 67.7631 134.142C70.0702 130.697 74.0303 128.559 78.1005 128.559Z" stroke="black" stroke-width="21" stroke-linecap="round"/>
</svg>
