<svg width="130" height="59" viewBox="0 0 130 59" fill="none" xmlns="http://www.w3.org/2000/svg">
<path d="M3.79497 9.21326C3.79497 12.8112 2.6827 15.9529 2.52939 19.4748C2.48581 20.4759 1.72235 23.9879 3.36106 24.3286C6.43807 24.9683 10.2049 24.4589 13.3411 24.4589C17.5847 24.4589 21.3988 25.6317 25.5991 25.6317H36.9532C40.1783 25.6317 39.5928 24.3933 39.5928 21.5271V11.6239C39.5928 9.28659 38.7577 8.02642 38.2549 5.98822C37.8693 4.42501 32.3022 4.87484 30.9146 4.6526C24.1418 3.56786 17.4086 3.95989 10.6291 3.31697C8.85942 3.14915 2.71064 1.43962 2.52939 3.15409C2.1986 6.2832 2.49323 9.58243 2.49323 12.7315M51.5945 5.65955C51.5945 10.2559 52.5156 15.0057 53.1896 19.5599C53.4048 21.0136 53.6827 22.2856 53.6827 23.7666C53.6827 26.7199 59.6861 25.8831 61.9774 25.8831H81.0032C82.1014 25.8831 84.0042 25.5366 85.0055 25.9876C85.352 26.1437 86.2465 27.23 86.4556 26.4056C86.8647 24.7932 86.075 22.8278 86.0496 21.1799C85.9804 16.6885 85.0055 12.3625 85.0055 7.80209C85.0055 7.04441 84.7092 2.72766 84.1354 2.44573C82.1922 1.49081 77.2915 2.36735 75.0866 2.36735H56.1769C54.8544 2.36735 53.4309 2.22803 52.1165 2.36735C51.1821 2.46638 51.5945 5.43238 51.5945 6.12986M96.4906 6.12985C96.4906 10.7941 95.9685 15.3132 95.9685 19.9519V25.4127C95.9685 28.1655 100.967 27.294 103.103 27.294C110.31 27.294 117.398 27.7643 124.565 27.7643C126.378 27.7643 125.725 27.2217 125.725 25.4127V19.5077C125.725 15.9909 125.203 12.4813 125.203 8.9256C125.203 7.72601 125.464 6.18161 125.174 5.00632C124.816 3.55374 119.703 4.24859 118.736 4.24859C111.616 4.24859 101.68 5.64564 95.4465 2.83764M2 34.3488C2 40.2108 2.52205 46.1116 2.52205 52.0117V54.8074C2.52205 57.1579 12.0214 56.4535 14.0071 56.4535H39.3264C40.8449 56.4535 40.1094 53.1784 40.1094 52.2207C40.1094 48.1611 39.0653 44.2073 39.0653 40.2016V34.61C39.0653 32.2383 39.1192 31.9972 36.3391 31.9972H2.52205M50.5504 34.8191C49.8309 34.9811 48.7659 44.5633 48.5202 46.0021C48.2706 47.4636 48.4622 49.0703 48.4622 50.5485V54.102C48.4622 56.066 52.8226 55.954 54.3787 55.9832C64.6657 56.1763 74.9754 55.9832 85.2665 55.9832C87.1474 55.9832 85.6385 45.3847 85.5275 43.2847C85.4552 41.9153 85.6472 34.6985 83.6714 34.3749C77.0014 33.2823 69.2767 34.3488 62.4415 34.3488H50.5504M94.9244 35.2894C94.9244 39.9551 94.4024 44.543 94.4024 49.1898V55.2777C94.4024 57.5382 96.182 56.9238 98.4627 56.9238H126.015C128.855 56.9238 127.813 53.081 127.813 51.28V40.2015C127.813 36.3724 127.68 35.1949 122.999 34.7145C116.44 34.0414 109.756 34.3487 103.161 34.3487C101.103 34.3487 95.739 31.9405 94.4024 34.3487M96.4906 2.83764V6.60016" stroke="black" stroke-width="3" stroke-linecap="round"/>
</svg>
